<svg width="152" height="152" viewBox="0 0 152 152" fill="none" xmlns="http://www.w3.org/2000/svg">
<rect width="152" height="152" fill="black"/>
<path d="M61.035 57H62.5623C68.4438 57.365 73.0579 59.2552 75.9824 63.153C78.9502 59.2422 83.5644 57.3389 89.4784 57H90.9406C104.058 58.069 110.036 69.3842 120.51 74.1945C122.139 75.0852 123.911 75.5304 125.699 75.4981C128.385 75.1461 130.096 71.8741 129.75 68.224C129.381 64.3132 126.197 60.9108 122.644 62.788C122.178 63.0513 121.75 63.4035 121.377 63.8309C121.106 64.1307 120.803 64.9129 120.11 64.6261C119.46 63.9743 120.11 63.0226 120.445 62.4751C121.087 61.1024 122.058 59.9947 123.231 59.2969C124.404 58.5991 125.725 58.3438 127.02 58.5643C133.118 59.0858 138.577 65.5256 137.646 75.2765C135.566 89.7856 124.54 93.6964 111.466 95H107.209C95.8005 94.4393 84.857 89.4035 76.0474 80.6604C67.1727 89.3814 56.1913 94.4118 44.7446 95H40.5636C27.3926 93.6051 16.2579 89.7856 14.319 74.8463C13.5825 64.2089 18.8466 58.9815 24.9555 58.447C26.2619 58.2235 27.5939 58.4768 28.7795 59.1739C29.9651 59.8711 30.9496 60.9802 31.606 62.3578C31.9093 62.9575 32.4725 63.883 31.9418 64.6C31.2811 64.7434 30.9561 64.1177 30.6745 63.8048C30.2785 63.3081 29.8047 62.9107 29.2805 62.6355C28.7562 62.3603 28.1919 62.2128 27.6201 62.2014C23.4391 62.0189 21.0345 67.6113 22.7026 72.1218C23.0296 72.997 23.5362 73.7577 24.1747 74.3324C24.8133 74.907 25.5628 75.2768 26.3528 75.4069C28.1396 75.4217 29.9084 74.9772 31.541 74.1033C32.9973 73.4311 34.4003 72.6021 35.7328 71.6264C43.6939 66.0731 49.922 58.1863 61.035 57Z" fill="white"/>
</svg>
