<svg width="16" height="16" viewBox="0 0 16 16" fill="none" xmlns="http://www.w3.org/2000/svg">
<rect width="16" height="16" rx="2" fill="black"/>
<path d="M6.42474 6H6.5855C7.20461 6.03842 7.69031 6.23739 7.99815 6.64769C8.31055 6.23602 8.79626 6.03568 9.41878 6H9.5727C10.9534 6.11252 11.5828 7.3036 12.6853 7.80995C12.8567 7.90371 13.0432 7.95057 13.2314 7.94717C13.5142 7.91012 13.6943 7.5657 13.6579 7.18148C13.6191 6.76981 13.2839 6.41166 12.9099 6.60926C12.8608 6.63698 12.8158 6.67405 12.7765 6.71904C12.748 6.7506 12.7161 6.83293 12.6431 6.80274C12.5747 6.73413 12.6431 6.63396 12.6785 6.57633C12.746 6.43183 12.8482 6.31523 12.9717 6.24178C13.0951 6.16833 13.2342 6.14145 13.3705 6.16467C14.0125 6.21955 14.5871 6.89743 14.489 7.92384C14.2701 9.45111 13.1095 9.86278 11.7333 10H11.2852C10.0843 9.94098 8.93231 9.41089 8.00499 8.49057C7.07081 9.40856 5.91488 9.93809 4.70995 10H4.26986C2.88343 9.85317 1.71136 9.45111 1.50727 7.87856C1.42974 6.75883 1.98385 6.20858 2.6269 6.15232C2.76441 6.12879 2.90462 6.15545 3.02942 6.22883C3.15422 6.30222 3.25786 6.41896 3.32695 6.56398C3.35887 6.6271 3.41816 6.72453 3.36229 6.8C3.29274 6.81509 3.25854 6.74923 3.2289 6.7163C3.18721 6.66401 3.13734 6.62218 3.08216 6.59321C3.02697 6.56424 2.96757 6.54871 2.90737 6.54751C2.46728 6.5283 2.21416 7.11698 2.38974 7.59177C2.42417 7.68389 2.47749 7.76397 2.54471 7.82446C2.61193 7.88495 2.69082 7.92387 2.77398 7.93756C2.96206 7.93912 3.14825 7.89234 3.32011 7.80034C3.4734 7.72958 3.62108 7.64233 3.76135 7.53962C4.59936 6.95506 5.25495 6.12487 6.42474 6Z" fill="white"/>
</svg>
